<svg id='Computer_Logo_Social_Tiktok_24' width='24' height='24' viewBox='0 0 24 24'
    xmlns='http://www.w3.org/2000/svg' xmlns:xlink='http://www.w3.org/1999/xlink'>
    <rect width='24' height='24' stroke='none' fill='#000000' opacity='0' />


    <g transform="matrix(0.48 0 0 0.48 12 12)">
        <path
            style="stroke: rgb(0,0,0); stroke-width: 3.125; stroke-dasharray: none; stroke-linecap: round; stroke-dashoffset: 0; stroke-linejoin: round; stroke-miterlimit: 4; fill: none; fill-rule: nonzero; opacity: 1;"
            transform=" translate(-24, -24)"
            d="M 17.0453 20.667 C 10.5636 21.1171 5 25.736 5 32.8154 C 5 39.5448 10.3929 45 17.0453 45 C 23.6977 45 29.0906 39.5448 29.0906 32.8154 L 28.7426 17.6254 C 31.7697 19.9606 36.6047 21.3731 41.079 21.5988 C 41.8795 21.6392 42.6472 21.2756 42.8342 20.4962 C 42.9295 20.0991 43 19.5825 43 18.9232 C 43 18.2639 42.9295 17.7473 42.8342 17.3503 C 42.6472 16.5707 41.8777 16.2323 41.08 16.1525 C 35.0305 15.5469 29.3333 10.6525 28.5186 4.87281 C 28.4154 4.14128 28.0056 3.46669 27.2906 3.28065 C 26.7222 3.13273 25.9644 3 25.0755 3 C 24.1855 3 23.427 3.13304 22.8584 3.28116 C 22.1445 3.46711 21.719 4.13737 21.702 4.87489 L 21.0604 32.8154 C 21.0604 35.0585 19.2628 36.8769 17.0453 36.8769 C 14.8278 36.8769 13.0302 35.0585 13.0302 32.8154 C 13.0302 30.4834 14.9792 28.9823 17.0453 28.5978"
            stroke-linecap="round" />
    </g>
</svg>