<svg id='Messaging_Whatsapp_24' width='24' height='24' viewBox='0 0 24 24'
    xmlns='http://www.w3.org/2000/svg' xmlns:xlink='http://www.w3.org/1999/xlink'>
    <rect width='24' height='24' stroke='none' fill='#000000' opacity='0' />


    <g transform="matrix(0.89 0 0 0.89 12 12)">
        <path
            style="stroke: rgb(0,0,0); stroke-width: 1.6853932584269662; stroke-dasharray: none; stroke-linecap: round; stroke-dashoffset: 0; stroke-linejoin: round; stroke-miterlimit: 4; fill: none; fill-rule: nonzero; opacity: 1;"
            transform=" translate(-11.99, -11.91)"
            d="M 12 0.75 C 5.8111233381794 0.7278478470289383 0.7730561641049665 5.721171973376248 0.740000000000002 11.909999999999997 C 0.7355638939593281 14.262761464441152 1.48560998527238 16.554958397706272 2.880000000000001 18.45 L 1.48 22.6 L 5.800000000000001 21.23 C 9.24558565306026 23.49247837445718 13.652034844684689 23.691415521263792 17.287475089130815 21.748622913566663 C 20.92291533357694 19.805830305869538 23.206228104930982 16.031859816462042 23.240000000000002 11.909999999999995 C 23.20695602503819 5.728999116455144 18.181079232344125 0.7388936888336364 11.999999999999998 0.7499999999999982 M 18.07 14.66 C 18 14.540000000000001 17.8 14.46 17.51 14.32 C 17.220000000000002 14.18 15.770000000000001 13.47 15.510000000000002 13.370000000000001 C 15.250000000000002 13.270000000000001 15.040000000000001 13.22 14.850000000000001 13.520000000000001 C 14.660000000000002 13.820000000000002 14.350000000000001 14.250000000000002 14.180000000000001 14.440000000000001 C 14.010000000000002 14.63 13.840000000000002 14.660000000000002 13.540000000000001 14.510000000000002 C 11.828770915510075 13.76429612122726 10.384859067772734 12.515696021009942 9.400000000000002 10.93 C 9.230000000000002 10.640000000000002 9.400000000000002 10.480000000000002 9.530000000000003 10.340000000000002 C 10.020000000000003 9.850000000000001 10.030000000000003 9.920000000000002 10.150000000000002 9.680000000000001 C 10.237168662006622 9.521174081817685 10.237168662006622 9.328825918182318 10.150000000000002 9.170000000000002 C 10 9 9.45 7.58 9.2 7 C 8.95 6.42 7.6899999999999995 6.3100000000000005 7.199999999999999 6.85 C 2 12.33 14.67 21.72 17.91 16 C 18.180474381734033 15.614348408222527 18.24050406458947 15.11910352466517 18.07 14.68"
            stroke-linecap="round" />
    </g>
</svg>